<svg xmlns="http://www.w3.org/2000/svg" version="1.1" xmlns:xlink="http://www.w3.org/1999/xlink" xmlns:svgjs="http://svgjs.dev/svgjs" width="1500" height="1687" viewBox="0 0 1500 1687"><g transform="matrix(1,0,0,1,0.00011015625000254659,0)"><svg viewBox="0 0 320 360" data-background-color="#182524" preserveAspectRatio="xMidYMid meet" height="1687" width="1500" xmlns="http://www.w3.org/2000/svg" xmlns:xlink="http://www.w3.org/1999/xlink"><g id="tight-bounds" transform="matrix(1,0,0,1,0.000023499999997511622,0)"><svg viewBox="0 0 320 360" height="360" width="320"><g><svg></svg></g><g><svg viewBox="0 0 320 360" height="360" width="320"><g><path transform="translate(-74.99272,-51.79039) scale(4.65793,4.65793)" d="M20.6 59.9l0.8 1-0.4-1.3c-0.1-0.6-0.8 0.1-0.4 0.3M21.5 59.3c0.3 0.5 0.6 1 0.6 1.5 0 0.7 0.6 1 1.1 1.2-0.7-0.8-1.1-3-1.7-2.7M59.9 16.9c1.7 0 3.3-0.2 5.1 0.2 4.4 1.1 8.1 3.3 10.6 6.4l7 11.2c0.3 2.8 0.9 5.9 0.8 9.3 0.7 0 0.6-1 1.4-1.2-0.8 2-1.2 4.5-1.4 7.4-0.5-1.6 0-4 0.1-5.3-0.7 1.1-1.1 0.3-1.1-0.2 0.1-0.8-0.3-0.7-0.6-1-1.1-1-1.8-2.1-2.6-3.8 0.5-1.3 0.6-3.2-1-4.2-0.5-0.3-1.1-0.8-1.4-1.6-0.4-1.1-1.1-2.4-0.9-4.1 0.1-0.5-1.5 1.1-2.4 0.4-3.9-2.7-7.8-5.8-12.5-8.4-2.5 0-4.3-0.9-5.2-2-0.8-1-0.2-2.3 1-2.4 0.7 0 1.5-0.2 2.1 0.2 0.1-0.4 0.5-0.9 1-0.9M50 14.6l0.2 0.1c1 0.2 1.5 1.6 2.6 1.1 0 0.7 0.1 1.4-0.1 1.9-0.3 0.8-1.2 0.8-1.9 0.8-6.7-0.4-10.6 2.4-14.7 4.8-1.1 0.7-2.3 1.2-3.2 2.1-4.3 4-9 7.7-10.1 15.1l-0.9 8.2c-0.1 0.9-1.1 1.8-0.9 2.9l0.7 4.9c-0.7-0.7-1.1 0.2-0.9 0.6 0.1 0.3 0.5 1.3 1.1 0.4 0.8 1.5 1.6 4.4 2.7 5.7 3.4 4 7.8 7.6 11.4 11.2 0.9-0.2 1.6-0.2 1.8-0.8 0.3 0.6-0.3 1.2-0.8 1.3 1.6 1 3.4 1.9 5.8 2.1 3.1 0.2 6 0.7 8.7 1.4 1.4-0.4 2.8-0.6 4.3-0.7 0.5 0 0.8-0.8 1.4-1l0.1-1c0.6 0.9 0.5-0.3 0.1-0.9 0.7 0.6 0.9 1.1 1.2 1.5 0-0.3 0.8-1.4 0.8-0.1l0.2-1.3c0.3-0.2 0.4 1.1 0.7 0.2 0.3-0.9 0.9-0.2 1.5-0.5-0.2 0.4-0.1 1.2 0.6 0.7l0.8-0.7c0.5 1.2 1.3 0.7 1.7 0.5 4.4-2.8 8.8-6.1 13-9.4l-0.1 1.3 0.5-1.6c0.5 0.5 0.9 0.1 1.1-0.2 0.6-1 1.4-2 2.7-2.9-1.6 4.3-3.5 7.7-5.9 10.5l-1 1.2c0 0.7-0.2 1.6-1 1.7-0.4 0.1-1.2-0.2-1.8 0.4-0.3 0.4 0.7 1.2-0.1 0.6-0.7-0.5-1.4 0-2.2 0.2-0.6 0.2 0.4 0.8 0.6 1.2 0.2 0.4 0.4 0.8 0.3 1.3l-1.1-1.2c-1.3 0.7-2.1 2-3.2 3-0.5 0.4-0.3 1.1-0.3 1.7-0.7 0-1.5-0.2-1.9 0.2-0.3 0.4-0.2 1-0.2 1.6-1-0.1-1.1-1.6-2-1.3-0.9 0.2-1.9 0.3-2.7 0.8 0.6 1.2-1 0.5-0.8 0.7-1.5-0.9-2.8-1.6-4.4-1-3.4-1.1-7.6-0.6-10.7-0.2 0-0.5 0.1-1-0.1-1.1-0.2 0.5-0.8 0.3-0.7 0.3-1.9-1.3-3.8-2.1-5.8-3.2-1.8 0.2-3.5-0.7-4-1.2-1.4-1.3-3-0.6-4.3-0.9-2.8-0.7-3.8-3.6-4.1-5.6-0.2-1-1-1.4-1.3-1.3-1.3-4.2-3.3-8-4.9-11.9-0.4-1-0.3-2-0.3-3.1 0.5 0.2 1 0.1 0.9-0.6-0.5-3.3-1.7-5.8-3-8.2 0.7-3.4 0.8-7.4 2.4-10.4 1.4-2.7 4-4.1 5.8-6.4 0.6-0.8 0.6-1.9 1.2-2.6 2-2 4-4.1 6.2-5.9 1-0.8 2.2 0 3.7-0.3 0.5-1.8 2.5-3.4 4.4-2.9 0.8 0.2 2.4-1.9 2.9-2.1 0.8-0.3 0.4 0.8 0.4 1.5 1.9-1.5 4.5-2.3 6.9-3.2" fill="#e2f1e6" fill-rule="nonzero" stroke="none" stroke-width="1" stroke-linecap="butt" stroke-linejoin="miter" stroke-miterlimit="10" stroke-dasharray="" stroke-dashoffset="0" font-family="none" font-weight="none" font-size="none" text-anchor="none" style="mix-blend-mode: normal" data-fill-palette-color="tertiary"></path></g><g transform="matrix(1,0,0,1,64,132.67222785062242)"><svg viewBox="0 0 192 94.65554429875517" height="94.65554429875517" width="192"><g><svg viewBox="0 0 192 94.65554429875517" height="94.65554429875517" width="192"><g><svg viewBox="0 0 192 94.65554429875517" height="94.65554429875517" width="192"><g transform="matrix(1,0,0,1,0,57.21156089626555)"><svg viewBox="0 0 192 37.44398340248962" height="37.44398340248962" width="192"><g id="textblocktransform"><svg viewBox="0 0 192 37.44398340248962" height="37.44398340248962" width="192" id="textblock"><g><svg viewBox="0 0 192 37.44398340248962" height="37.44398340248962" width="192"><g transform="matrix(1,0,0,1,0,0)"><svg width="192" viewBox="1.5 -37 192.78 37.6" height="37.44398340248962" data-palette-color="#e2f1e6"><path d="M13.2 0.6L13.2 0.6Q9.55 0.6 6.55-0.38 3.55-1.35 1.5-2.95L1.5-2.95 3.9-6.95Q5.7-5.45 7.95-4.5 10.2-3.55 13.2-3.55L13.2-3.55Q16.8-3.55 18.9-5.05 21-6.55 21-9.1L21-9.1Q21-10.55 20.4-11.68 19.8-12.8 18.07-13.88 16.35-14.95 13-16.2L13-16.2Q9.4-17.6 7.25-19.03 5.1-20.45 4.17-22.28 3.25-24.1 3.25-26.6L3.25-26.6Q3.25-29.1 4.63-31.13 6-33.15 8.68-34.38 11.35-35.6 15.15-35.6L15.15-35.6Q18.25-35.6 20.73-34.98 23.2-34.35 25.55-33.2L25.55-33.2 23.8-29.15Q22.1-30.15 19.83-30.83 17.55-31.5 15.05-31.5L15.05-31.5Q11.75-31.5 9.85-30.2 7.95-28.9 7.95-26.85L7.95-26.85Q7.95-25.55 8.5-24.55 9.05-23.55 10.68-22.6 12.3-21.65 15.55-20.45L15.55-20.45Q19.45-19 21.73-17.4 24-15.8 24.95-13.93 25.9-12.05 25.9-9.65L25.9-9.65Q25.9-6.4 24.28-4.1 22.65-1.8 19.78-0.6 16.9 0.6 13.2 0.6ZM42.35 0.6L42.35 0.6Q39.1 0.6 36.45-1.05 33.8-2.7 32.22-5.73 30.65-8.75 30.65-12.85L30.65-12.85Q30.65-16.75 32.22-19.85 33.8-22.95 36.57-24.78 39.35-26.6 42.95-26.6L42.95-26.6Q45.2-26.6 47.02-25.83 48.85-25.05 50.2-23.9L50.2-23.9 50.2-26 54.3-26 54.3-6.3Q54.3-4.4 55.22-3.83 56.15-3.25 57.25-3.25L57.25-3.25 56.3 0.25Q51.5 0.25 50.5-3.65L50.5-3.65Q49.35-2.05 47.37-0.73 45.4 0.6 42.35 0.6ZM43.35-3.4L43.35-3.4Q45.25-3.4 46.95-4.33 48.65-5.25 49.8-6.65L49.8-6.65 49.8-20.6Q48.45-21.55 46.82-22.13 45.2-22.7 43.4-22.7L43.4-22.7Q41-22.7 39.17-21.48 37.35-20.25 36.3-18.07 35.25-15.9 35.25-13L35.25-13Q35.25-10.2 36.3-8.03 37.35-5.85 39.2-4.63 41.05-3.4 43.35-3.4ZM71.75 0.6L71.75 0.6Q69.5 0.6 67.5-0.35 65.5-1.3 64.25-3.43 63-5.55 63-9.1L63-9.1 63-26 67.5-26 67.5-9.7Q67.5-6.65 68.8-5.03 70.09-3.4 72.59-3.4L72.59-3.4Q74.65-3.4 76.57-4.23 78.5-5.05 80-6.45L80-6.45 80-26 84.5-26 84.5-6.75Q84.5-4.6 85.42-3.93 86.34-3.25 87.45-3.25L87.45-3.25 86.5 0.25Q81.84 0.25 80.75-3.45L80.75-3.45Q79-1.65 76.7-0.53 74.4 0.6 71.75 0.6ZM97.94 0L93.44 0 93.44-26 97.79-26 97.79-20.35Q98.44-22 99.54-23.43 100.64-24.85 102.29-25.73 103.94-26.6 106.14-26.6L106.14-26.6Q106.89-26.6 107.64-26.53 108.39-26.45 108.89-26.3L108.89-26.3 107.54-21.65Q106.59-22.05 105.29-22.05L105.29-22.05Q103.44-22.05 101.77-21 100.09-19.95 99.02-17.75 97.94-15.55 97.94-12.15L97.94-12.15 97.94 0ZM121.84 0.6L121.84 0.6Q118.59 0.6 115.94-1.05 113.29-2.7 111.72-5.73 110.14-8.75 110.14-12.85L110.14-12.85Q110.14-16.75 111.72-19.85 113.29-22.95 116.07-24.78 118.84-26.6 122.44-26.6L122.44-26.6Q124.69-26.6 126.52-25.83 128.34-25.05 129.69-23.9L129.69-23.9 129.69-26 133.79-26 133.79-6.3Q133.79-4.4 134.72-3.83 135.64-3.25 136.74-3.25L136.74-3.25 135.79 0.25Q130.99 0.25 129.99-3.65L129.99-3.65Q128.84-2.05 126.87-0.73 124.89 0.6 121.84 0.6ZM122.84-3.4L122.84-3.4Q124.74-3.4 126.44-4.33 128.14-5.25 129.29-6.65L129.29-6.65 129.29-20.6Q127.94-21.55 126.32-22.13 124.69-22.7 122.89-22.7L122.89-22.7Q120.49-22.7 118.67-21.48 116.84-20.25 115.79-18.07 114.74-15.9 114.74-13L114.74-13Q114.74-10.2 115.79-8.03 116.84-5.85 118.69-4.63 120.54-3.4 122.84-3.4ZM154.44 0.6L154.44 0.6Q152.19 0.6 150.21-0.23 148.24-1.05 146.94-2.15L146.94-2.15 146.94 0 142.74 0 142.74-37 147.24-37 147.24-23.3Q148.24-24.45 150.16-25.53 152.09-26.6 154.74-26.6L154.74-26.6Q157.74-26.6 160.36-25.03 162.99-23.45 164.59-20.48 166.19-17.5 166.19-13.25L166.19-13.25Q166.19-10.15 165.19-7.6 164.19-5.05 162.51-3.23 160.84-1.4 158.74-0.4 156.64 0.6 154.44 0.6ZM153.24-3.4L153.24-3.4Q155.69-3.4 157.56-4.6 159.44-5.8 160.51-8 161.59-10.2 161.59-13.1L161.59-13.1Q161.59-16.1 160.51-18.25 159.44-20.4 157.66-21.55 155.89-22.7 153.74-22.7L153.74-22.7Q151.59-22.7 149.86-21.63 148.14-20.55 147.24-19.3L147.24-19.3 147.24-5.4Q148.39-4.5 149.94-3.95 151.49-3.4 153.24-3.4ZM176.94 0L172.44 0 172.44-37 176.94-37 176.94-21.85Q178.34-23.9 180.49-25.25 182.63-26.6 185.53-26.6L185.53-26.6Q189.94-26.6 192.11-23.95 194.28-21.3 194.28-16.95L194.28-16.95 194.28 0 189.78 0 189.78-16.45Q189.78-19.25 188.49-20.95 187.19-22.65 184.84-22.65L184.84-22.65Q182.53-22.65 180.46-21.03 178.38-19.4 176.94-17.2L176.94-17.2 176.94 0Z" opacity="1" transform="matrix(1,0,0,1,0,0)" fill="#e2f1e6" class="wordmark-text-0" data-fill-palette-color="primary" id="text-0"></path></svg></g></svg></g></svg></g></svg></g><g transform="matrix(1,0,0,1,66.6315653607803,0)"><svg viewBox="0 0 58.7368692784394 51.74758506224066" height="51.74758506224066" width="58.7368692784394"><g><svg xmlns="http://www.w3.org/2000/svg" xmlns:xlink="http://www.w3.org/1999/xlink" version="1.1" x="0" y="0" viewBox="6.3 11.5 87.4 77" style="enable-background:new 0 0 100 100;" xml:space="preserve" height="51.74758506224066" width="58.7368692784394" class="icon-icon-0" data-fill-palette-color="accent" id="icon-0"><path d="M72.3 12.3L71.9 11.5H28.2L6.3 50 28.1 88.5H71.8L93.7 50zM33.3 25.3L9.9 47.7 28.5 14.9zM70.7 14.8L77.1 50.5 36.9 25.8zM35.5 27.3L76.5 52.5 35.5 75.8zM77 54.5L69.8 85.3 37.2 77.2zM33.5 75L9.9 50.5 33.5 27.8zM33.2 77.6L28.6 85.3 11.5 55.1zM35 78.6L66.4 86.5H30.2zM79.3 53.3L90.9 50.8 72.1 84zM90.7 48.9L79.3 51.4 73.4 18.3zM35 24.3L30 13.5H68.2z" fill="#f2e2de" data-fill-palette-color="accent"></path></svg></g></svg></g><g></g></svg></g></svg></g></svg></g></svg></g><defs></defs></svg><rect width="320" height="360" fill="none" stroke="none" visibility="hidden"></rect></g></svg></g></svg>